<svg xmlns="http://www.w3.org/2000/svg" xmlns:xlink="http://www.w3.org/1999/xlink" version="1.1" width="256" height="256" viewBox="0 0 256 256" xml:space="preserve">

<defs>
</defs>
<g style="stroke: none; stroke-width: 0; stroke-dasharray: none; stroke-linecap: butt; stroke-linejoin: miter; stroke-miterlimit: 10; fill: none; fill-rule: nonzero; opacity: 1;" transform="translate(1.4065934065934016 1.4065934065934016) scale(2.81 2.81)" >
	<path d="M 68.146 48.342 v -0.005 c -2.967 -1.453 -6 -0.811 -8.906 1.943 c -0.503 0.476 -0.999 0.868 -1.491 1.178 c -0.011 0.007 -0.022 0.015 -0.034 0.022 c -0.131 0.082 -0.262 0.153 -0.393 0.223 c -0.042 0.023 -0.085 0.048 -0.127 0.069 c -0.112 0.057 -0.224 0.105 -0.335 0.153 c -0.061 0.026 -0.122 0.054 -0.183 0.078 c -0.1 0.039 -0.199 0.07 -0.299 0.102 c -0.072 0.023 -0.144 0.047 -0.216 0.066 c -0.093 0.025 -0.185 0.044 -0.278 0.063 c -0.078 0.016 -0.155 0.031 -0.233 0.043 c -0.09 0.013 -0.179 0.022 -0.269 0.029 c -0.08 0.007 -0.159 0.012 -0.239 0.015 c -0.089 0.002 -0.179 0.001 -0.268 -0.002 c -0.078 -0.003 -0.157 -0.007 -0.235 -0.014 c -0.092 -0.008 -0.185 -0.02 -0.277 -0.035 c -0.074 -0.012 -0.147 -0.025 -0.221 -0.041 c -0.098 -0.021 -0.196 -0.044 -0.295 -0.071 c -0.066 -0.018 -0.132 -0.039 -0.198 -0.06 c -0.107 -0.035 -0.213 -0.071 -0.32 -0.114 c -0.056 -0.022 -0.111 -0.047 -0.167 -0.071 c -0.118 -0.051 -0.235 -0.105 -0.353 -0.166 c -0.041 -0.021 -0.083 -0.045 -0.124 -0.068 c -0.132 -0.072 -0.264 -0.147 -0.397 -0.231 c -0.023 -0.015 -0.047 -0.031 -0.07 -0.047 c -0.15 -0.097 -0.3 -0.2 -0.451 -0.312 c -0.001 0 -0.001 -0.001 -0.002 -0.001 c -0.168 -0.125 -0.336 -0.26 -0.504 -0.404 c -0.002 -0.002 -0.005 -0.003 -0.007 -0.005 c -0.146 -0.125 -0.293 -0.253 -0.44 -0.393 c -3.805 -3.604 -7.827 -3.604 -11.632 0 c -0.157 0.149 -0.314 0.286 -0.47 0.419 c -0.003 0.002 -0.006 0.004 -0.008 0.006 c -0.317 0.269 -0.632 0.502 -0.946 0.704 c -0.025 0.016 -0.05 0.034 -0.074 0.049 c -0.128 0.08 -0.255 0.151 -0.382 0.22 c -0.046 0.025 -0.091 0.051 -0.137 0.075 c -0.113 0.058 -0.225 0.108 -0.338 0.157 c -0.06 0.026 -0.12 0.053 -0.18 0.077 c -0.102 0.04 -0.203 0.074 -0.305 0.107 c -0.07 0.023 -0.141 0.045 -0.211 0.065 c -0.094 0.026 -0.187 0.047 -0.281 0.066 c -0.078 0.016 -0.155 0.031 -0.233 0.043 c -0.089 0.014 -0.177 0.024 -0.266 0.032 c -0.081 0.007 -0.162 0.012 -0.244 0.015 c -0.087 0.003 -0.173 0.004 -0.26 0.001 c -0.082 -0.002 -0.163 -0.008 -0.245 -0.015 c -0.088 -0.008 -0.175 -0.016 -0.263 -0.029 c -0.079 -0.012 -0.158 -0.027 -0.237 -0.043 c -0.092 -0.019 -0.183 -0.038 -0.275 -0.063 c -0.072 -0.019 -0.144 -0.043 -0.216 -0.066 c -0.099 -0.032 -0.199 -0.064 -0.298 -0.102 c -0.061 -0.024 -0.122 -0.052 -0.182 -0.078 c -0.112 -0.048 -0.223 -0.096 -0.335 -0.153 c -0.042 -0.021 -0.084 -0.046 -0.126 -0.069 c -0.131 -0.07 -0.262 -0.142 -0.393 -0.224 c -0.012 -0.007 -0.024 -0.016 -0.035 -0.023 c -0.489 -0.309 -0.983 -0.699 -1.484 -1.173 c -2.907 -2.753 -5.94 -3.396 -8.906 -1.943 v 1.525 v 1.183 v 4.13 v 1.023 V 56.5 c 2.966 -1.453 5.999 -0.81 8.906 1.943 c 0.501 0.474 0.994 0.864 1.484 1.173 c 0.012 0.007 0.024 0.016 0.035 0.023 c 0.131 0.082 0.262 0.154 0.393 0.224 c 0.042 0.022 0.084 0.047 0.126 0.069 c 0.112 0.057 0.224 0.105 0.335 0.153 c 0.061 0.026 0.122 0.054 0.182 0.078 c 0.1 0.039 0.199 0.071 0.298 0.102 c 0.072 0.023 0.144 0.047 0.216 0.066 c 0.092 0.025 0.184 0.044 0.275 0.063 c 0.079 0.016 0.158 0.032 0.237 0.043 c 0.088 0.013 0.175 0.022 0.263 0.029 c 0.082 0.007 0.163 0.013 0.245 0.015 c 0.087 0.002 0.173 0.002 0.26 -0.001 c 0.081 -0.003 0.162 -0.008 0.244 -0.015 c 0.089 -0.008 0.177 -0.018 0.266 -0.032 c 0.078 -0.012 0.155 -0.027 0.233 -0.043 c 0.093 -0.019 0.187 -0.041 0.281 -0.066 c 0.07 -0.019 0.141 -0.042 0.211 -0.065 c 0.102 -0.033 0.203 -0.067 0.305 -0.107 c 0.06 -0.023 0.12 -0.051 0.18 -0.077 c 0.112 -0.049 0.225 -0.099 0.338 -0.157 c 0.046 -0.023 0.091 -0.05 0.137 -0.075 c 0.127 -0.069 0.255 -0.14 0.382 -0.22 c 0.025 -0.016 0.05 -0.033 0.074 -0.049 c 0.313 -0.202 0.628 -0.435 0.946 -0.704 c 0.003 -0.002 0.006 -0.004 0.008 -0.006 c 0.156 -0.133 0.312 -0.27 0.47 -0.419 c 3.805 -3.604 7.827 -3.604 11.632 0 c 0.147 0.14 0.294 0.267 0.44 0.393 c 0.002 0.002 0.005 0.003 0.007 0.005 c 0.169 0.144 0.337 0.279 0.504 0.404 c 0.001 0 0.001 0.001 0.002 0.001 c 0.151 0.113 0.301 0.215 0.451 0.312 c 0.023 0.015 0.047 0.032 0.07 0.047 c 0.133 0.084 0.265 0.159 0.397 0.231 c 0.041 0.022 0.083 0.046 0.124 0.068 c 0.118 0.061 0.236 0.115 0.353 0.166 c 0.056 0.024 0.111 0.049 0.167 0.071 c 0.107 0.043 0.213 0.079 0.32 0.114 c 0.066 0.021 0.132 0.042 0.198 0.06 c 0.098 0.027 0.197 0.05 0.295 0.071 c 0.074 0.015 0.147 0.029 0.221 0.041 c 0.092 0.015 0.185 0.026 0.277 0.035 c 0.078 0.007 0.157 0.012 0.235 0.014 c 0.089 0.003 0.179 0.005 0.268 0.002 c 0.08 -0.002 0.159 -0.008 0.239 -0.015 c 0.09 -0.008 0.179 -0.016 0.269 -0.029 c 0.078 -0.011 0.155 -0.027 0.233 -0.043 c 0.093 -0.019 0.185 -0.038 0.278 -0.063 c 0.072 -0.019 0.144 -0.043 0.216 -0.066 c 0.1 -0.032 0.199 -0.063 0.299 -0.102 c 0.061 -0.023 0.122 -0.052 0.183 -0.078 c 0.112 -0.048 0.223 -0.096 0.335 -0.153 c 0.042 -0.021 0.085 -0.047 0.127 -0.069 c 0.131 -0.07 0.262 -0.141 0.393 -0.223 c 0.011 -0.007 0.022 -0.015 0.034 -0.022 c 0.492 -0.31 0.988 -0.701 1.491 -1.178 c 2.906 -2.754 5.939 -3.396 8.906 -1.943 v -0.153 v -1.172 v -4.125 l 0 0 L 68.146 48.342 L 68.146 48.342 z" style="stroke: none; stroke-width: 1; stroke-dasharray: none; stroke-linecap: butt; stroke-linejoin: miter; stroke-miterlimit: 10; fill: rgb(56,228,228); fill-rule: nonzero; opacity: 1;" transform=" matrix(1 0 0 1 0 0) " stroke-linecap="round" />
	<path d="M 68.146 41.022 v -0.005 c -2.967 -1.453 -6 -0.811 -8.906 1.943 c -0.503 0.476 -0.999 0.868 -1.491 1.178 c -0.011 0.007 -0.022 0.015 -0.034 0.022 c -0.131 0.082 -0.262 0.153 -0.393 0.223 c -0.042 0.023 -0.085 0.048 -0.127 0.069 c -0.112 0.057 -0.224 0.105 -0.335 0.153 c -0.061 0.026 -0.122 0.054 -0.183 0.078 c -0.1 0.039 -0.199 0.07 -0.299 0.102 c -0.072 0.023 -0.144 0.047 -0.216 0.066 c -0.093 0.025 -0.185 0.044 -0.278 0.063 c -0.078 0.016 -0.155 0.031 -0.233 0.043 c -0.09 0.013 -0.179 0.022 -0.269 0.029 c -0.08 0.007 -0.159 0.012 -0.239 0.015 c -0.089 0.002 -0.179 0.001 -0.268 -0.002 c -0.078 -0.003 -0.157 -0.007 -0.235 -0.014 c -0.092 -0.008 -0.185 -0.02 -0.277 -0.035 c -0.074 -0.012 -0.147 -0.025 -0.221 -0.041 c -0.098 -0.021 -0.196 -0.044 -0.295 -0.071 c -0.066 -0.018 -0.132 -0.039 -0.198 -0.06 c -0.107 -0.035 -0.213 -0.071 -0.32 -0.114 c -0.056 -0.022 -0.111 -0.047 -0.167 -0.071 c -0.118 -0.051 -0.235 -0.105 -0.353 -0.166 c -0.041 -0.021 -0.083 -0.045 -0.124 -0.068 c -0.132 -0.072 -0.264 -0.147 -0.397 -0.231 c -0.023 -0.015 -0.047 -0.031 -0.07 -0.047 c -0.15 -0.097 -0.3 -0.2 -0.451 -0.312 c -0.001 0 -0.001 -0.001 -0.002 -0.001 c -0.168 -0.125 -0.336 -0.26 -0.504 -0.404 c -0.002 -0.002 -0.005 -0.003 -0.007 -0.005 c -0.146 -0.125 -0.293 -0.253 -0.44 -0.393 c -3.805 -3.604 -7.827 -3.604 -11.632 0 c -0.157 0.149 -0.314 0.286 -0.47 0.419 c -0.003 0.002 -0.006 0.004 -0.008 0.006 c -0.317 0.269 -0.632 0.502 -0.946 0.704 c -0.025 0.016 -0.05 0.034 -0.074 0.049 c -0.128 0.08 -0.255 0.151 -0.382 0.22 c -0.046 0.025 -0.091 0.051 -0.137 0.075 c -0.113 0.058 -0.225 0.108 -0.338 0.157 c -0.06 0.026 -0.12 0.053 -0.18 0.077 c -0.102 0.04 -0.203 0.074 -0.305 0.107 c -0.07 0.023 -0.141 0.045 -0.211 0.065 c -0.094 0.026 -0.187 0.047 -0.281 0.066 c -0.078 0.016 -0.155 0.031 -0.233 0.043 c -0.089 0.014 -0.177 0.024 -0.266 0.032 c -0.081 0.007 -0.162 0.012 -0.244 0.015 c -0.087 0.003 -0.173 0.004 -0.26 0.001 c -0.082 -0.002 -0.163 -0.008 -0.245 -0.015 c -0.088 -0.008 -0.175 -0.016 -0.263 -0.029 c -0.079 -0.012 -0.158 -0.027 -0.237 -0.043 c -0.092 -0.019 -0.183 -0.038 -0.275 -0.063 c -0.072 -0.019 -0.144 -0.043 -0.216 -0.066 c -0.099 -0.032 -0.199 -0.064 -0.298 -0.102 c -0.061 -0.024 -0.122 -0.052 -0.182 -0.078 c -0.112 -0.048 -0.223 -0.096 -0.335 -0.153 c -0.042 -0.021 -0.084 -0.046 -0.126 -0.069 c -0.131 -0.07 -0.262 -0.142 -0.393 -0.224 c -0.012 -0.007 -0.024 -0.016 -0.035 -0.023 c -0.489 -0.309 -0.983 -0.699 -1.484 -1.173 c -2.907 -2.753 -5.94 -3.396 -8.906 -1.943 v 1.525 v 1.183 v 4.13 v 1.023 v 0.303 c 2.966 -1.453 5.999 -0.81 8.906 1.943 c 0.501 0.474 0.994 0.864 1.484 1.173 c 0.012 0.007 0.024 0.016 0.035 0.023 c 0.131 0.082 0.262 0.154 0.393 0.224 c 0.042 0.022 0.084 0.047 0.126 0.069 c 0.112 0.057 0.224 0.105 0.335 0.153 c 0.061 0.026 0.122 0.054 0.182 0.078 c 0.1 0.039 0.199 0.071 0.298 0.102 c 0.072 0.023 0.144 0.047 0.216 0.066 c 0.092 0.025 0.184 0.044 0.275 0.063 c 0.079 0.016 0.158 0.032 0.237 0.043 c 0.088 0.013 0.175 0.022 0.263 0.029 c 0.082 0.007 0.163 0.013 0.245 0.015 c 0.087 0.002 0.173 0.002 0.26 -0.001 c 0.081 -0.003 0.162 -0.008 0.244 -0.015 c 0.089 -0.008 0.177 -0.018 0.266 -0.032 c 0.078 -0.012 0.155 -0.027 0.233 -0.043 c 0.093 -0.019 0.187 -0.041 0.281 -0.066 c 0.07 -0.019 0.141 -0.042 0.211 -0.065 c 0.102 -0.033 0.203 -0.067 0.305 -0.107 c 0.06 -0.023 0.12 -0.051 0.18 -0.077 c 0.112 -0.049 0.225 -0.099 0.338 -0.157 c 0.046 -0.023 0.091 -0.05 0.137 -0.075 c 0.127 -0.069 0.255 -0.14 0.382 -0.22 c 0.025 -0.016 0.05 -0.033 0.074 -0.049 c 0.313 -0.202 0.628 -0.435 0.946 -0.704 c 0.003 -0.002 0.006 -0.004 0.008 -0.006 c 0.156 -0.133 0.312 -0.27 0.47 -0.419 c 3.805 -3.604 7.827 -3.604 11.632 0 c 0.147 0.14 0.294 0.267 0.44 0.393 c 0.002 0.002 0.005 0.003 0.007 0.005 c 0.169 0.144 0.337 0.279 0.504 0.404 c 0.001 0 0.001 0.001 0.002 0.001 c 0.151 0.113 0.301 0.215 0.451 0.312 c 0.023 0.015 0.047 0.032 0.07 0.047 c 0.133 0.084 0.265 0.159 0.397 0.231 c 0.041 0.022 0.083 0.046 0.124 0.068 c 0.118 0.061 0.236 0.115 0.353 0.166 c 0.056 0.024 0.111 0.049 0.167 0.071 c 0.107 0.043 0.213 0.079 0.32 0.114 c 0.066 0.021 0.132 0.042 0.198 0.06 c 0.098 0.027 0.197 0.05 0.295 0.071 c 0.074 0.015 0.147 0.029 0.221 0.041 c 0.092 0.015 0.185 0.026 0.277 0.035 c 0.078 0.007 0.157 0.012 0.235 0.014 c 0.089 0.003 0.179 0.005 0.268 0.002 c 0.08 -0.002 0.159 -0.008 0.239 -0.015 c 0.09 -0.008 0.179 -0.016 0.269 -0.029 c 0.078 -0.011 0.155 -0.027 0.233 -0.043 c 0.093 -0.019 0.185 -0.038 0.278 -0.063 c 0.072 -0.019 0.144 -0.043 0.216 -0.066 c 0.1 -0.032 0.199 -0.063 0.299 -0.102 c 0.061 -0.023 0.122 -0.052 0.183 -0.078 c 0.112 -0.048 0.223 -0.096 0.335 -0.153 c 0.042 -0.021 0.085 -0.047 0.127 -0.069 c 0.131 -0.07 0.262 -0.141 0.393 -0.223 c 0.011 -0.007 0.022 -0.015 0.034 -0.022 c 0.492 -0.31 0.988 -0.701 1.491 -1.178 c 2.906 -2.754 5.939 -3.396 8.906 -1.943 v -0.153 v -1.172 v -4.125 l 0 0 L 68.146 41.022 L 68.146 41.022 z" style="stroke: none; stroke-width: 1; stroke-dasharray: none; stroke-linecap: butt; stroke-linejoin: miter; stroke-miterlimit: 10; fill: rgb(51,204,204); fill-rule: nonzero; opacity: 1;" transform=" matrix(1 0 0 1 0 0) " stroke-linecap="round" />
	<path d="M 68.146 33.442 v -0.005 c -2.967 -1.453 -6 -0.811 -8.906 1.943 c -0.503 0.476 -0.999 0.868 -1.491 1.178 c -0.011 0.007 -0.022 0.015 -0.034 0.022 c -0.131 0.082 -0.262 0.153 -0.393 0.223 c -0.042 0.023 -0.085 0.048 -0.127 0.069 c -0.112 0.057 -0.224 0.105 -0.335 0.153 c -0.061 0.026 -0.122 0.054 -0.183 0.078 c -0.1 0.039 -0.199 0.07 -0.299 0.102 c -0.072 0.023 -0.144 0.047 -0.216 0.066 c -0.093 0.025 -0.185 0.044 -0.278 0.063 c -0.078 0.016 -0.155 0.031 -0.233 0.043 c -0.09 0.013 -0.179 0.022 -0.269 0.029 c -0.08 0.007 -0.159 0.012 -0.239 0.015 c -0.089 0.002 -0.179 0.001 -0.268 -0.002 c -0.078 -0.003 -0.157 -0.007 -0.235 -0.014 c -0.092 -0.008 -0.185 -0.02 -0.277 -0.035 c -0.074 -0.012 -0.147 -0.025 -0.221 -0.041 c -0.098 -0.021 -0.196 -0.044 -0.295 -0.071 c -0.066 -0.018 -0.132 -0.039 -0.198 -0.06 c -0.107 -0.035 -0.213 -0.071 -0.32 -0.114 c -0.056 -0.022 -0.111 -0.047 -0.167 -0.071 c -0.118 -0.051 -0.235 -0.105 -0.353 -0.166 c -0.041 -0.021 -0.083 -0.045 -0.124 -0.068 c -0.132 -0.072 -0.264 -0.147 -0.397 -0.231 c -0.023 -0.015 -0.047 -0.031 -0.07 -0.047 c -0.15 -0.097 -0.3 -0.2 -0.451 -0.312 c -0.001 0 -0.001 -0.001 -0.002 -0.001 c -0.168 -0.125 -0.336 -0.26 -0.504 -0.404 c -0.002 -0.002 -0.005 -0.003 -0.007 -0.005 c -0.146 -0.125 -0.293 -0.253 -0.44 -0.393 c -3.805 -3.604 -7.827 -3.604 -11.632 0 c -0.157 0.149 -0.314 0.286 -0.47 0.419 c -0.003 0.002 -0.006 0.004 -0.008 0.006 c -0.317 0.269 -0.632 0.502 -0.946 0.704 c -0.025 0.016 -0.05 0.034 -0.074 0.049 c -0.128 0.08 -0.255 0.151 -0.382 0.22 c -0.046 0.025 -0.091 0.051 -0.137 0.075 c -0.113 0.058 -0.225 0.108 -0.338 0.157 c -0.06 0.026 -0.12 0.053 -0.18 0.077 c -0.102 0.04 -0.203 0.074 -0.305 0.107 c -0.07 0.023 -0.141 0.045 -0.211 0.065 c -0.094 0.026 -0.187 0.047 -0.281 0.066 c -0.078 0.016 -0.155 0.031 -0.233 0.043 c -0.089 0.014 -0.177 0.024 -0.266 0.032 c -0.081 0.007 -0.162 0.012 -0.244 0.015 c -0.087 0.003 -0.173 0.004 -0.26 0.001 c -0.082 -0.002 -0.163 -0.008 -0.245 -0.015 c -0.088 -0.008 -0.175 -0.016 -0.263 -0.029 c -0.079 -0.012 -0.158 -0.027 -0.237 -0.043 c -0.092 -0.019 -0.183 -0.038 -0.275 -0.063 c -0.072 -0.019 -0.144 -0.043 -0.216 -0.066 c -0.099 -0.032 -0.199 -0.064 -0.298 -0.102 c -0.061 -0.024 -0.122 -0.052 -0.182 -0.078 c -0.112 -0.048 -0.223 -0.096 -0.335 -0.153 c -0.042 -0.021 -0.084 -0.046 -0.126 -0.069 c -0.131 -0.07 -0.262 -0.142 -0.393 -0.224 c -0.012 -0.007 -0.024 -0.016 -0.035 -0.023 c -0.489 -0.309 -0.983 -0.699 -1.484 -1.173 c -2.907 -2.753 -5.94 -3.396 -8.906 -1.943 v 1.525 v 1.183 v 4.13 v 1.023 V 41.6 c 2.966 -1.453 5.999 -0.81 8.906 1.943 c 0.501 0.474 0.994 0.864 1.484 1.173 c 0.012 0.007 0.024 0.016 0.035 0.023 c 0.131 0.082 0.262 0.154 0.393 0.224 c 0.042 0.022 0.084 0.047 0.126 0.069 c 0.112 0.057 0.224 0.105 0.335 0.153 c 0.061 0.026 0.122 0.054 0.182 0.078 c 0.1 0.039 0.199 0.071 0.298 0.102 c 0.072 0.023 0.144 0.047 0.216 0.066 c 0.092 0.025 0.184 0.044 0.275 0.063 c 0.079 0.016 0.158 0.032 0.237 0.043 c 0.088 0.013 0.175 0.022 0.263 0.029 c 0.082 0.007 0.163 0.013 0.245 0.015 c 0.087 0.002 0.173 0.002 0.26 -0.001 c 0.081 -0.003 0.162 -0.008 0.244 -0.015 c 0.089 -0.008 0.177 -0.018 0.266 -0.032 c 0.078 -0.012 0.155 -0.027 0.233 -0.043 c 0.093 -0.019 0.187 -0.041 0.281 -0.066 c 0.07 -0.019 0.141 -0.042 0.211 -0.065 c 0.102 -0.033 0.203 -0.067 0.305 -0.107 c 0.06 -0.023 0.12 -0.051 0.18 -0.077 c 0.112 -0.049 0.225 -0.099 0.338 -0.157 c 0.046 -0.023 0.091 -0.05 0.137 -0.075 c 0.127 -0.069 0.255 -0.14 0.382 -0.22 c 0.025 -0.016 0.05 -0.033 0.074 -0.049 c 0.313 -0.202 0.628 -0.435 0.946 -0.704 c 0.003 -0.002 0.006 -0.004 0.008 -0.006 c 0.156 -0.133 0.312 -0.27 0.47 -0.419 c 3.805 -3.604 7.827 -3.604 11.632 0 c 0.147 0.14 0.294 0.267 0.44 0.393 c 0.002 0.002 0.005 0.003 0.007 0.005 c 0.169 0.144 0.337 0.279 0.504 0.404 c 0.001 0 0.001 0.001 0.002 0.001 c 0.151 0.113 0.301 0.215 0.451 0.312 c 0.023 0.015 0.047 0.032 0.07 0.047 c 0.133 0.084 0.265 0.159 0.397 0.231 c 0.041 0.022 0.083 0.046 0.124 0.068 c 0.118 0.061 0.236 0.115 0.353 0.166 c 0.056 0.024 0.111 0.049 0.167 0.071 c 0.107 0.043 0.213 0.079 0.32 0.114 c 0.066 0.021 0.132 0.042 0.198 0.06 c 0.098 0.027 0.197 0.05 0.295 0.071 c 0.074 0.015 0.147 0.029 0.221 0.041 c 0.092 0.015 0.185 0.026 0.277 0.035 c 0.078 0.007 0.157 0.012 0.235 0.014 c 0.089 0.003 0.179 0.005 0.268 0.002 c 0.08 -0.002 0.159 -0.008 0.239 -0.015 c 0.09 -0.008 0.179 -0.016 0.269 -0.029 c 0.078 -0.011 0.155 -0.027 0.233 -0.043 c 0.093 -0.019 0.185 -0.038 0.278 -0.063 c 0.072 -0.019 0.144 -0.043 0.216 -0.066 c 0.1 -0.032 0.199 -0.063 0.299 -0.102 c 0.061 -0.023 0.122 -0.052 0.183 -0.078 c 0.112 -0.048 0.223 -0.096 0.335 -0.153 c 0.042 -0.021 0.085 -0.047 0.127 -0.069 c 0.131 -0.07 0.262 -0.141 0.393 -0.223 c 0.011 -0.007 0.022 -0.015 0.034 -0.022 c 0.492 -0.31 0.988 -0.701 1.491 -1.178 c 2.906 -2.754 5.939 -3.396 8.906 -1.943 v -0.153 v -1.172 V 36.15 l 0 0 L 68.146 33.442 L 68.146 33.442 z" style="stroke: none; stroke-width: 1; stroke-dasharray: none; stroke-linecap: butt; stroke-linejoin: miter; stroke-miterlimit: 10; fill: rgb(56,228,228); fill-rule: nonzero; opacity: 1;" transform=" matrix(1 0 0 1 0 0) " stroke-linecap="round" />
	<path d="M 45 0 C 27.207 0 12.732 14.13 12.732 31.499 c 0 0.63 0.026 1.272 0.067 1.918 l 0.049 0.601 c 0.037 0.456 0.083 0.914 0.139 1.373 l 0.089 0.677 c 0.066 0.466 0.143 0.937 0.228 1.413 l 0.103 0.582 c 0.128 0.66 0.271 1.327 0.445 2.052 c 0.004 0.015 0.008 0.031 0.012 0.046 c 1.906 7.83 6.21 17 12.793 27.254 h 0.001 c 0.012 0.02 0.025 0.04 0.035 0.057 c 0.53 0.826 1.073 1.649 1.627 2.48 l 0.407 0.606 c 0.515 0.765 1.035 1.528 1.562 2.288 c 0.002 0.002 0.134 0.193 0.135 0.194 c 0.567 0.814 1.144 1.626 1.72 2.425 l 0.44 0.609 c 0.557 0.769 1.12 1.537 1.66 2.26 c 0.01 0.014 0.109 0.148 0.119 0.162 c 0.595 0.797 1.197 1.586 1.801 2.373 l 0.455 0.59 c 0.59 0.763 1.181 1.522 1.829 2.338 c 0.613 0.774 1.23 1.535 1.854 2.303 l 0.446 0.547 c 0.617 0.752 1.235 1.5 1.853 2.236 C 43.197 89.592 44.074 90 45 90 c 0.925 0 1.803 -0.408 2.398 -1.118 c 0.618 -0.736 1.236 -1.482 1.867 -2.252 l 0.439 -0.538 c 0.618 -0.759 1.236 -1.522 1.899 -2.361 c 0.598 -0.752 1.191 -1.514 1.785 -2.282 l 0.444 -0.576 c 0.606 -0.788 1.21 -1.58 1.893 -2.499 c 0.572 -0.763 1.135 -1.534 1.69 -2.3 l 0.431 -0.598 c 0.583 -0.809 1.161 -1.621 1.746 -2.462 l 0.116 -0.168 c 0.473 -0.681 0.937 -1.363 1.405 -2.052 l 0.569 -0.849 c 0.551 -0.823 1.092 -1.648 1.555 -2.373 c 0.037 -0.052 0.095 -0.142 0.135 -0.206 c 3.094 -4.822 5.715 -9.463 7.791 -13.798 c 2.298 -4.796 3.968 -9.298 4.964 -13.38 c 0.015 -0.054 0.029 -0.108 0.041 -0.163 c 0.158 -0.66 0.297 -1.312 0.428 -1.984 l 0.098 -0.561 c 0.086 -0.476 0.164 -0.95 0.225 -1.395 l 0.093 -0.7 c 0.055 -0.459 0.101 -0.913 0.138 -1.356 l 0.05 -0.61 c 0.041 -0.648 0.067 -1.288 0.067 -1.917 C 77.268 14.13 62.792 0 45 0 z M 45 54.621 c -12.406 0 -22.5 -10.094 -22.5 -22.5 C 22.5 19.714 32.593 9.621 45 9.621 c 12.407 0 22.5 10.093 22.5 22.499 C 67.5 44.527 57.407 54.621 45 54.621 z" style="stroke: none; stroke-width: 1; stroke-dasharray: none; stroke-linecap: butt; stroke-linejoin: miter; stroke-miterlimit: 10; fill: rgb(247,89,89); fill-rule: nonzero; opacity: 1;" transform=" matrix(1 0 0 1 0 0) " stroke-linecap="round" />
</g>
</svg>